<?xml version="1.0" encoding="utf-8"?>
<!DOCTYPE svg PUBLIC "-//W3C//DTD SVG 1.0//EN" "http://www.w3.org/TR/2001/REC-SVG-20010904/DTD/svg10.dtd">
<svg version="1.0" xmlns="http://www.w3.org/2000/svg" width="32px" height="32px" viewBox="0 0 350 350" preserveAspectRatio="xMidYMid meet">
 <g fill="#000000">
  <path d="M131.5 348.5 c-3.1 -0.8 -5.9 -2.4 -7.6 -4.2 -6.4 -7.3 -65.5 -114.9 -73.9 -134.5 -13.9 -32.8 -9.5 -50.8 15.3 -62.9 7.7 -3.8 8.6 -4 15.2 -3.6 5.3 0.3 8.5 1.2 13.2 3.5 l6.2 3.2 0.3 -60.3 c0.3 -59.8 0.3 -60.2 2.6 -65.8 5.8 -14.4 19.7 -22.9 37.2 -23 10.1 0 17.3 2.7 24.5 9.2 3.2 3 6.5 7.3 8.2 10.7 l2.8 5.7 0.3 27.3 0.3 27.4 4.2 -0.4 c12.9 -1.4 27.9 4.3 36.6 13.8 2.8 3.1 5.1 5.9 5.1 6.3 0 0.5 3.5 1.1 7.8 1.4 13 0.9 22.4 5.8 29.6 15.6 2.3 3.1 4.8 7.5 5.5 9.8 l1.3 4 6.4 0.6 c13.1 1 25.8 9.7 31.7 21.6 l3.2 6.6 0.3 52 c0.2 34.8 -0.1 54.6 -0.8 60 -1.8 12.5 -6.1 23.7 -18.4 48.3 -12.3 24.4 -13.9 26.3 -22.3 28.3 -2.1 0.5 -32.1 0.8 -66.8 0.8 -49.2 0 -64.1 -0.3 -68 -1.4z m139.2 -40.5 c5.6 -11.3 11.4 -24.1 13 -28.5 l2.8 -8 0 -53.2 c0 -52.1 0 -53.2 -2.1 -55.9 -8.1 -11 -19.8 -12.2 -28.3 -3 -1.7 1.8 -3.5 2.6 -5.8 2.6 l-3.3 0 0 -10.1 c0 -12.6 -1.3 -17.2 -6.5 -22.5 -5.5 -5.7 -11 -7.4 -16.4 -4.9 -2.1 0.9 -5.6 3.5 -7.7 5.6 -2.9 3 -4.6 3.9 -7.1 3.9 l-3.3 0 0 -8.2 c0 -10.2 -2 -15.2 -7.7 -19.1 -11 -7.6 -21.4 -6.3 -31.3 3.8 -3.7 3.8 -5 4.5 -8.2 4.5 l-3.7 0 -0.3 -41.3 -0.3 -41.4 -2.8 -3.6 c-5.4 -7.1 -12.2 -8.6 -20.5 -4.6 -5.8 3 -8.9 7.4 -9.7 14.2 -0.4 2.9 -0.5 39.3 -0.3 81 l0.3 75.7 -3.5 0 c-3.1 -0.1 -4.2 -0.9 -9.8 -7.6 -7.4 -8.7 -18.5 -18.5 -24.4 -21.5 l-4.1 -2.1 -4.8 2.3 c-5.5 2.5 -9.3 6.1 -10.8 10.2 -2.7 7 5.3 25.8 30.6 72.1 14.6 26.6 43.2 77.7 44.6 79.4 0.7 0.9 13.7 1.2 61.1 1 l60.1 -0.3 10.2 -20.5z"/>
 </g>
 <g fill="#00aeef">
  <desc>cursor-land.com</desc><path d="M136.3 330.8 c-1.4 -1.7 -30 -52.8 -44.6 -79.4 -35.7 -65.4 -38.9 -78.7 -20.6 -87.9 8.8 -4.5 14.5 -3 26.3 7 3.6 3 9.5 9 13.2 13.3 3.7 4.2 7 7.8 7.3 8 0.3 0.1 0.5 -33.9 0.3 -75.5 -0.2 -41.7 0 -78.1 0.3 -81 0.4 -2.9 1.6 -6.7 2.8 -8.5 3.2 -4.8 10.8 -8.3 18.2 -8.2 7.1 0 11.3 1.9 15.2 7.1 l2.8 3.6 0.3 41.4 c0.1 22.7 0.6 41.3 1 41.3 0.4 0 2.8 -2 5.2 -4.5 10.6 -10.8 25.8 -12.2 37.6 -3.5 5.6 4 7.4 8.8 7.4 19.2 l0 8.2 4.3 -4.1 c5.6 -5.4 9.6 -7.3 15.4 -7.3 9.2 0.1 17.6 6.3 20.2 14.9 0.6 2.1 1.1 8.5 1.1 14.2 l0 10.3 3.3 -3.1 c6.2 -5.9 13.6 -8.1 21.1 -6.2 5.9 1.5 13.2 7.8 14.6 12.7 0.8 2.5 1 20.9 0.8 57.7 l-0.3 54 -2.8 8 c-1.6 4.4 -7.4 17.2 -13 28.5 l-10.2 20.5 -63.1 0.3 c-49.8 0.2 -63.4 -0.1 -64.1 -1z"/>
 </g>
</svg>